<mxfile host="app.diagrams.net" agent="Mozilla/5.0 (Windows NT 10.0; Win64; x64) AppleWebKit/537.36 (KHTML, like Gecko) Chrome/130.0.0.0 Safari/537.36 Edg/130.0.0.0" version="24.8.4">
  <diagram name="Страница — 1" id="X3jVPovE2oFSCsRrR-qo">
    <mxGraphModel dx="1106" dy="611" grid="1" gridSize="10" guides="1" tooltips="1" connect="1" arrows="1" fold="1" page="1" pageScale="1" pageWidth="827" pageHeight="1169" math="0" shadow="0">
      <root>
        <mxCell id="0" />
        <mxCell id="1" parent="0" />
        <mxCell id="JoetTdicjiF9OVzUxW74-1" value="start" style="strokeWidth=2;html=1;shape=mxgraph.flowchart.start_1;whiteSpace=wrap;fontFamily=Times New Roman;labelBackgroundColor=none;fontStyle=0;fontSize=13;fontColor=#000000;" parent="1" vertex="1">
          <mxGeometry x="80" y="40" width="120" height="80" as="geometry" />
        </mxCell>
        <mxCell id="JoetTdicjiF9OVzUxW74-3" value="input n, m" style="shape=parallelogram;html=1;strokeWidth=2;perimeter=parallelogramPerimeter;whiteSpace=wrap;rounded=1;arcSize=12;size=0.23;fontFamily=Times New Roman;labelBackgroundColor=none;fontStyle=0;fontSize=13;fontColor=#000000;" parent="1" vertex="1">
          <mxGeometry x="80" y="160" width="120" height="80" as="geometry" />
        </mxCell>
        <mxCell id="JoetTdicjiF9OVzUxW74-4" value="&lt;span lang=&quot;EN-US&quot; style=&quot;font-size: 13px; line-height: 150%;&quot;&gt;n &lt;/span&gt;&lt;span lang=&quot;EN-US&quot; style=&quot;font-size: 13px; line-height: 150%;&quot;&gt;&amp;gt; &lt;/span&gt;&lt;span lang=&quot;EN-US&quot; style=&quot;font-size: 13px; line-height: 150%;&quot;&gt;15 &lt;/span&gt;&lt;span lang=&quot;EN-US&quot; style=&quot;font-size: 13px; line-height: 150%;&quot;&gt;|| &lt;/span&gt;&lt;span lang=&quot;EN-US&quot; style=&quot;font-size: 13px; line-height: 150%;&quot;&gt;m &lt;/span&gt;&lt;span lang=&quot;EN-US&quot; style=&quot;font-size: 13px; line-height: 150%;&quot;&gt;&amp;gt; &lt;/span&gt;&lt;span lang=&quot;EN-US&quot; style=&quot;font-size: 13px; line-height: 150%;&quot;&gt;15&lt;/span&gt;" style="strokeWidth=2;html=1;shape=mxgraph.flowchart.decision;whiteSpace=wrap;fontFamily=Times New Roman;labelBackgroundColor=none;fontStyle=0;fontSize=13;fontColor=#000000;" parent="1" vertex="1">
          <mxGeometry x="80" y="280" width="120" height="120" as="geometry" />
        </mxCell>
        <mxCell id="JoetTdicjiF9OVzUxW74-5" value="&lt;span lang=&quot;EN-US&quot; style=&quot;font-size: 13px; line-height: 150%;&quot;&gt;arr&lt;/span&gt;&lt;span lang=&quot;EN-US&quot; style=&quot;line-height: 150%; font-size: 13px;&quot;&gt;[&lt;/span&gt;&lt;span lang=&quot;EN-US&quot; style=&quot;font-size: 13px; line-height: 150%;&quot;&gt;n&lt;/span&gt;&lt;span lang=&quot;EN-US&quot; style=&quot;font-size: 13px; line-height: 150%;&quot;&gt;][&lt;/span&gt;&lt;span lang=&quot;EN-US&quot; style=&quot;font-size: 13px; line-height: 150%;&quot;&gt;m&lt;/span&gt;&lt;span lang=&quot;EN-US&quot; style=&quot;font-size: 13px; line-height: 150%;&quot;&gt;]&lt;/span&gt;&lt;div style=&quot;font-size: 13px;&quot;&gt;&lt;span lang=&quot;EN-US&quot; style=&quot;font-size: 13px; line-height: 150%;&quot;&gt;sum &lt;/span&gt;&lt;span lang=&quot;EN-US&quot; style=&quot;font-size: 13px; line-height: 150%;&quot;&gt;= &lt;/span&gt;&lt;span lang=&quot;EN-US&quot; style=&quot;font-size: 13px; line-height: 150%;&quot;&gt;0&lt;/span&gt;&lt;div style=&quot;font-size: 13px;&quot;&gt;&lt;span lang=&quot;EN-US&quot; style=&quot;font-size: 13px; line-height: 150%;&quot;&gt;min &lt;/span&gt;&lt;span lang=&quot;EN-US&quot; style=&quot;font-size: 13px; line-height: 150%;&quot;&gt;= &lt;/span&gt;&lt;span style=&quot;font-size: 13px;&quot;&gt;&lt;span lang=&quot;EN-US&quot; style=&quot;font-size: 13px; line-height: 150%;&quot;&gt;INT_MAX&lt;/span&gt;&lt;/span&gt;&lt;/div&gt;&lt;/div&gt;" style="rounded=1;whiteSpace=wrap;html=1;absoluteArcSize=1;arcSize=14;strokeWidth=2;fontFamily=Times New Roman;labelBackgroundColor=none;fontStyle=0;fontSize=13;fontColor=#000000;" parent="1" vertex="1">
          <mxGeometry x="80" y="440" width="120" height="120" as="geometry" />
        </mxCell>
        <mxCell id="JoetTdicjiF9OVzUxW74-6" value="" style="verticalLabelPosition=bottom;verticalAlign=top;html=1;shape=hexagon;perimeter=hexagonPerimeter2;arcSize=6;size=0.27;strokeWidth=2;fontFamily=Times New Roman;labelBackgroundColor=none;fontStyle=0;fontSize=13;fontColor=#000000;" parent="1" vertex="1">
          <mxGeometry x="80" y="600" width="120" height="80" as="geometry" />
        </mxCell>
        <mxCell id="JoetTdicjiF9OVzUxW74-7" value="max = 0" style="rounded=1;whiteSpace=wrap;html=1;absoluteArcSize=1;arcSize=14;strokeWidth=2;fontFamily=Times New Roman;labelBackgroundColor=none;fontStyle=0;fontSize=13;fontColor=#000000;" parent="1" vertex="1">
          <mxGeometry x="80" y="720" width="120" height="120" as="geometry" />
        </mxCell>
        <mxCell id="JoetTdicjiF9OVzUxW74-8" value="" style="verticalLabelPosition=bottom;verticalAlign=top;html=1;shape=hexagon;perimeter=hexagonPerimeter2;arcSize=6;size=0.27;strokeWidth=2;fontFamily=Times New Roman;labelBackgroundColor=none;fontStyle=0;fontSize=13;fontColor=#000000;" parent="1" vertex="1">
          <mxGeometry x="160" y="1040" width="120" height="80" as="geometry" />
        </mxCell>
        <mxCell id="JoetTdicjiF9OVzUxW74-9" value="&lt;span lang=&quot;EN-US&quot; style=&quot;font-size: 13px; line-height: 150%;&quot;&gt;arr&lt;/span&gt;&lt;span lang=&quot;EN-US&quot; style=&quot;line-height: 150%; font-size: 13px;&quot;&gt;[&lt;/span&gt;&lt;span lang=&quot;EN-US&quot; style=&quot;font-size: 13px; line-height: 150%;&quot;&gt;i&lt;/span&gt;&lt;span lang=&quot;EN-US&quot; style=&quot;font-size: 13px; line-height: 150%;&quot;&gt;][&lt;/span&gt;&lt;span lang=&quot;EN-US&quot; style=&quot;font-size: 13px; line-height: 150%;&quot;&gt;j&lt;/span&gt;&lt;span lang=&quot;EN-US&quot; style=&quot;font-size: 13px; line-height: 150%;&quot;&gt;] = rand() % &lt;/span&gt;&lt;span lang=&quot;EN-US&quot; style=&quot;font-size: 13px; line-height: 150%;&quot;&gt;10&lt;/span&gt;&lt;div style=&quot;font-size: 13px;&quot;&gt;&lt;span lang=&quot;EN-US&quot; style=&quot;font-size: 13px; line-height: 150%;&quot;&gt;&lt;span lang=&quot;EN-US&quot; style=&quot;font-size: 13px; line-height: 150%;&quot;&gt;sum &lt;/span&gt;&lt;span lang=&quot;EN-US&quot; style=&quot;font-size: 13px; line-height: 150%;&quot;&gt;+= &lt;/span&gt;&lt;span lang=&quot;EN-US&quot; style=&quot;font-size: 13px; line-height: 150%;&quot;&gt;array&lt;/span&gt;&lt;span lang=&quot;EN-US&quot; style=&quot;font-size: 13px; line-height: 150%;&quot;&gt;[&lt;/span&gt;&lt;span lang=&quot;EN-US&quot; style=&quot;font-size: 13px; line-height: 150%;&quot;&gt;i&lt;/span&gt;&lt;span lang=&quot;EN-US&quot; style=&quot;font-size: 13px; line-height: 150%;&quot;&gt;][&lt;/span&gt;&lt;span lang=&quot;EN-US&quot; style=&quot;font-size: 13px; line-height: 150%;&quot;&gt;j&lt;/span&gt;&lt;span lang=&quot;EN-US&quot; style=&quot;font-size: 13px; line-height: 150%;&quot;&gt;]&lt;/span&gt;&lt;/span&gt;&lt;/div&gt;" style="rounded=1;whiteSpace=wrap;html=1;absoluteArcSize=1;arcSize=14;strokeWidth=2;fontFamily=Times New Roman;labelBackgroundColor=none;fontStyle=0;fontSize=13;fontColor=#000000;" parent="1" vertex="1">
          <mxGeometry x="160" y="1160" width="120" height="120" as="geometry" />
        </mxCell>
        <mxCell id="JoetTdicjiF9OVzUxW74-10" value="1" style="verticalLabelPosition=middle;verticalAlign=middle;html=1;shape=mxgraph.flowchart.on-page_reference;strokeWidth=2;fontFamily=Times New Roman;labelBackgroundColor=none;fontStyle=0;fontSize=13;fontColor=#000000;labelPosition=center;align=center;" parent="1" vertex="1">
          <mxGeometry x="200" y="960" width="40" height="40" as="geometry" />
        </mxCell>
        <mxCell id="JoetTdicjiF9OVzUxW74-11" value="1" style="verticalLabelPosition=middle;verticalAlign=middle;html=1;shape=mxgraph.flowchart.on-page_reference;strokeWidth=2;fontFamily=Times New Roman;labelBackgroundColor=none;fontStyle=0;fontSize=13;fontColor=#000000;labelPosition=center;align=center;" parent="1" vertex="1">
          <mxGeometry x="120" y="880" width="40" height="40" as="geometry" />
        </mxCell>
        <mxCell id="JoetTdicjiF9OVzUxW74-12" value="3" style="verticalLabelPosition=middle;verticalAlign=middle;html=1;shape=mxgraph.flowchart.on-page_reference;strokeWidth=2;fontFamily=Times New Roman;labelBackgroundColor=none;fontStyle=0;fontSize=13;fontColor=#000000;labelPosition=center;align=center;" parent="1" vertex="1">
          <mxGeometry x="220" y="880" width="40" height="40" as="geometry" />
        </mxCell>
        <mxCell id="JoetTdicjiF9OVzUxW74-13" value="2" style="verticalLabelPosition=middle;verticalAlign=middle;html=1;shape=mxgraph.flowchart.on-page_reference;strokeWidth=2;fontFamily=Times New Roman;labelBackgroundColor=none;fontStyle=0;fontSize=13;fontColor=#000000;labelPosition=center;align=center;" parent="1" vertex="1">
          <mxGeometry x="20" y="880" width="40" height="40" as="geometry" />
        </mxCell>
        <mxCell id="JoetTdicjiF9OVzUxW74-14" value="4" style="verticalLabelPosition=middle;verticalAlign=middle;html=1;shape=mxgraph.flowchart.on-page_reference;strokeWidth=2;fontFamily=Times New Roman;labelBackgroundColor=none;fontStyle=0;fontSize=13;fontColor=#000000;labelPosition=center;align=center;" parent="1" vertex="1">
          <mxGeometry x="300" y="880" width="40" height="40" as="geometry" />
        </mxCell>
        <mxCell id="JoetTdicjiF9OVzUxW74-15" value="3" style="verticalLabelPosition=middle;verticalAlign=middle;html=1;shape=mxgraph.flowchart.on-page_reference;strokeWidth=2;fontFamily=Times New Roman;labelBackgroundColor=none;fontStyle=0;fontSize=13;fontColor=#000000;labelPosition=center;align=center;" parent="1" vertex="1">
          <mxGeometry x="400" y="960" width="40" height="40" as="geometry" />
        </mxCell>
        <mxCell id="JoetTdicjiF9OVzUxW74-16" value="2" style="verticalLabelPosition=middle;verticalAlign=middle;html=1;shape=mxgraph.flowchart.on-page_reference;strokeWidth=2;fontFamily=Times New Roman;labelBackgroundColor=none;fontStyle=0;fontSize=13;fontColor=#000000;labelPosition=center;align=center;" parent="1" vertex="1">
          <mxGeometry x="40" y="960" width="40" height="40" as="geometry" />
        </mxCell>
        <mxCell id="JoetTdicjiF9OVzUxW74-17" value="4" style="verticalLabelPosition=middle;verticalAlign=middle;html=1;shape=mxgraph.flowchart.on-page_reference;strokeWidth=2;fontFamily=Times New Roman;labelBackgroundColor=none;fontStyle=0;fontSize=13;fontColor=#000000;labelPosition=center;align=center;" parent="1" vertex="1">
          <mxGeometry x="460" y="960" width="40" height="40" as="geometry" />
        </mxCell>
        <mxCell id="JoetTdicjiF9OVzUxW74-19" value="output:&amp;nbsp;&lt;span lang=&quot;EN-US&quot; style=&quot;font-size: 13px; line-height: 24px;&quot;&gt;arr&lt;/span&gt;&lt;span lang=&quot;EN-US&quot; style=&quot;line-height: 18px; font-size: 13px;&quot;&gt;[&lt;/span&gt;&lt;span lang=&quot;EN-US&quot; style=&quot;font-size: 13px; line-height: 24px;&quot;&gt;i&lt;/span&gt;&lt;span lang=&quot;EN-US&quot; style=&quot;font-size: 13px; line-height: 24px;&quot;&gt;][&lt;/span&gt;&lt;span lang=&quot;EN-US&quot; style=&quot;font-size: 13px; line-height: 24px;&quot;&gt;j&lt;/span&gt;&lt;span lang=&quot;EN-US&quot; style=&quot;font-size: 13px; line-height: 24px;&quot;&gt;]&lt;/span&gt;" style="shape=parallelogram;html=1;strokeWidth=2;perimeter=parallelogramPerimeter;whiteSpace=wrap;rounded=1;arcSize=12;size=0.23;fontFamily=Times New Roman;labelBackgroundColor=none;fontStyle=0;fontSize=13;fontColor=#000000;" parent="1" vertex="1">
          <mxGeometry x="160" y="1320" width="120" height="80" as="geometry" />
        </mxCell>
        <mxCell id="JoetTdicjiF9OVzUxW74-20" value="&lt;span lang=&quot;EN-US&quot; style=&quot;font-size: 13px; line-height: 24px;&quot;&gt;arr&lt;/span&gt;&lt;span lang=&quot;EN-US&quot; style=&quot;line-height: 18px; font-size: 13px;&quot;&gt;[&lt;/span&gt;&lt;span lang=&quot;EN-US&quot; style=&quot;font-size: 13px; line-height: 24px;&quot;&gt;i&lt;/span&gt;&lt;span lang=&quot;EN-US&quot; style=&quot;font-size: 13px; line-height: 24px;&quot;&gt;][&lt;/span&gt;&lt;span lang=&quot;EN-US&quot; style=&quot;font-size: 13px; line-height: 24px;&quot;&gt;j&lt;/span&gt;&lt;span lang=&quot;EN-US&quot; style=&quot;font-size: 13px; line-height: 24px;&quot;&gt;]&lt;/span&gt;&lt;span lang=&quot;EN-US&quot; style=&quot;font-size: 13px; line-height: 150%;&quot;&gt;&amp;nbsp;&amp;gt; &lt;/span&gt;&lt;span lang=&quot;EN-US&quot; style=&quot;font-size: 13px; line-height: 150%;&quot;&gt;max&lt;/span&gt;" style="strokeWidth=2;html=1;shape=mxgraph.flowchart.decision;whiteSpace=wrap;fontFamily=Times New Roman;labelBackgroundColor=none;fontStyle=0;fontSize=13;fontColor=#000000;" parent="1" vertex="1">
          <mxGeometry x="160" y="1440" width="120" height="120" as="geometry" />
        </mxCell>
        <mxCell id="JoetTdicjiF9OVzUxW74-21" value="&lt;span lang=&quot;EN-US&quot; style=&quot;font-size: 13px; line-height: 150%;&quot;&gt;max &lt;/span&gt;&lt;span lang=&quot;EN-US&quot; style=&quot;line-height: 150%; font-size: 13px;&quot;&gt;= &lt;/span&gt;&lt;span lang=&quot;EN-US&quot; style=&quot;font-size: 13px; line-height: 150%;&quot;&gt;arr&lt;/span&gt;&lt;span lang=&quot;EN-US&quot; style=&quot;font-size: 13px; line-height: 150%;&quot;&gt;[&lt;/span&gt;&lt;span lang=&quot;EN-US&quot; style=&quot;font-size: 13px; line-height: 150%;&quot;&gt;i&lt;/span&gt;&lt;span lang=&quot;EN-US&quot; style=&quot;font-size: 13px; line-height: 150%;&quot;&gt;][&lt;/span&gt;&lt;span lang=&quot;EN-US&quot; style=&quot;font-size: 13px; line-height: 150%;&quot;&gt;j&lt;/span&gt;&lt;span lang=&quot;EN-US&quot; style=&quot;font-size: 13px; line-height: 150%;&quot;&gt;]&lt;/span&gt;" style="rounded=1;whiteSpace=wrap;html=1;absoluteArcSize=1;arcSize=14;strokeWidth=2;fontFamily=Times New Roman;labelBackgroundColor=none;fontStyle=0;fontSize=13;fontColor=#000000;" parent="1" vertex="1">
          <mxGeometry x="160" y="1600" width="120" height="120" as="geometry" />
        </mxCell>
        <mxCell id="JoetTdicjiF9OVzUxW74-22" value="&lt;span lang=&quot;EN-US&quot; style=&quot;font-size: 13px; line-height: 24px;&quot;&gt;arr&lt;/span&gt;&lt;span lang=&quot;EN-US&quot; style=&quot;line-height: 18px; font-size: 13px;&quot;&gt;[&lt;/span&gt;&lt;span lang=&quot;EN-US&quot; style=&quot;font-size: 13px; line-height: 24px;&quot;&gt;i&lt;/span&gt;&lt;span lang=&quot;EN-US&quot; style=&quot;font-size: 13px; line-height: 24px;&quot;&gt;][&lt;/span&gt;&lt;span lang=&quot;EN-US&quot; style=&quot;font-size: 13px; line-height: 24px;&quot;&gt;j&lt;/span&gt;&lt;span lang=&quot;EN-US&quot; style=&quot;font-size: 13px; line-height: 24px;&quot;&gt;]&amp;nbsp;&lt;/span&gt;&lt;span lang=&quot;EN-US&quot; style=&quot;font-size: 13px; line-height: 150%;&quot;&gt;&amp;lt; &lt;/span&gt;&lt;span lang=&quot;EN-US&quot; style=&quot;font-size: 13px; line-height: 150%;&quot;&gt;min&lt;/span&gt;" style="strokeWidth=2;html=1;shape=mxgraph.flowchart.decision;whiteSpace=wrap;fontFamily=Times New Roman;labelBackgroundColor=none;fontStyle=0;fontSize=13;fontColor=#000000;" parent="1" vertex="1">
          <mxGeometry x="160" y="1920" width="120" height="120" as="geometry" />
        </mxCell>
        <mxCell id="JoetTdicjiF9OVzUxW74-23" value="&lt;span lang=&quot;EN-US&quot; style=&quot;font-size: 13px; line-height: 150%;&quot;&gt;min&amp;nbsp;&lt;/span&gt;&lt;span lang=&quot;EN-US&quot; style=&quot;line-height: 150%; font-size: 13px;&quot;&gt;= &lt;/span&gt;&lt;span lang=&quot;EN-US&quot; style=&quot;font-size: 13px; line-height: 150%;&quot;&gt;arr&lt;/span&gt;&lt;span lang=&quot;EN-US&quot; style=&quot;font-size: 13px; line-height: 150%;&quot;&gt;[&lt;/span&gt;&lt;span lang=&quot;EN-US&quot; style=&quot;font-size: 13px; line-height: 150%;&quot;&gt;i&lt;/span&gt;&lt;span lang=&quot;EN-US&quot; style=&quot;font-size: 13px; line-height: 150%;&quot;&gt;][&lt;/span&gt;&lt;span lang=&quot;EN-US&quot; style=&quot;font-size: 13px; line-height: 150%;&quot;&gt;j&lt;/span&gt;&lt;span lang=&quot;EN-US&quot; style=&quot;font-size: 13px; line-height: 150%;&quot;&gt;]&lt;/span&gt;" style="rounded=1;whiteSpace=wrap;html=1;absoluteArcSize=1;arcSize=14;strokeWidth=2;fontFamily=Times New Roman;labelBackgroundColor=none;fontStyle=0;fontSize=13;fontColor=#000000;" parent="1" vertex="1">
          <mxGeometry x="160" y="2080" width="120" height="120" as="geometry" />
        </mxCell>
        <mxCell id="JoetTdicjiF9OVzUxW74-24" value="5" style="verticalLabelPosition=middle;verticalAlign=middle;html=1;shape=mxgraph.flowchart.on-page_reference;strokeWidth=2;fontFamily=Times New Roman;labelBackgroundColor=none;fontStyle=0;fontSize=13;fontColor=#000000;labelPosition=center;align=center;" parent="1" vertex="1">
          <mxGeometry x="200" y="1840" width="40" height="40" as="geometry" />
        </mxCell>
        <mxCell id="JoetTdicjiF9OVzUxW74-25" value="7" style="verticalLabelPosition=middle;verticalAlign=middle;html=1;shape=mxgraph.flowchart.on-page_reference;strokeWidth=2;fontFamily=Times New Roman;labelBackgroundColor=none;fontStyle=0;fontSize=13;fontColor=#000000;labelPosition=center;align=center;" parent="1" vertex="1">
          <mxGeometry x="340" y="1840" width="40" height="40" as="geometry" />
        </mxCell>
        <mxCell id="JoetTdicjiF9OVzUxW74-26" value="6" style="verticalLabelPosition=middle;verticalAlign=middle;html=1;shape=mxgraph.flowchart.on-page_reference;strokeWidth=2;fontFamily=Times New Roman;labelBackgroundColor=none;fontStyle=0;fontSize=13;fontColor=#000000;labelPosition=center;align=center;" parent="1" vertex="1">
          <mxGeometry x="100" y="1840" width="40" height="40" as="geometry" />
        </mxCell>
        <mxCell id="JoetTdicjiF9OVzUxW74-27" value="9" style="verticalLabelPosition=middle;verticalAlign=middle;html=1;shape=mxgraph.flowchart.on-page_reference;strokeWidth=2;fontFamily=Times New Roman;labelBackgroundColor=none;fontStyle=0;fontSize=13;fontColor=#000000;labelPosition=center;align=center;" parent="1" vertex="1">
          <mxGeometry x="400" y="1840" width="40" height="40" as="geometry" />
        </mxCell>
        <mxCell id="JoetTdicjiF9OVzUxW74-28" value="" style="endArrow=classic;html=1;rounded=0;exitX=0.5;exitY=1;exitDx=0;exitDy=0;exitPerimeter=0;entryX=0.5;entryY=0;entryDx=0;entryDy=0;fontFamily=Times New Roman;labelBackgroundColor=none;fontStyle=0;fontSize=13;fontColor=#000000;" parent="1" source="JoetTdicjiF9OVzUxW74-1" target="JoetTdicjiF9OVzUxW74-3" edge="1">
          <mxGeometry width="50" height="50" relative="1" as="geometry">
            <mxPoint x="260" y="200" as="sourcePoint" />
            <mxPoint x="310" y="150" as="targetPoint" />
          </mxGeometry>
        </mxCell>
        <mxCell id="JoetTdicjiF9OVzUxW74-29" value="" style="endArrow=classic;html=1;rounded=0;exitX=0.5;exitY=1;exitDx=0;exitDy=0;entryX=0.5;entryY=0;entryDx=0;entryDy=0;entryPerimeter=0;fontFamily=Times New Roman;labelBackgroundColor=none;fontStyle=0;fontSize=13;fontColor=#000000;" parent="1" source="JoetTdicjiF9OVzUxW74-3" target="JoetTdicjiF9OVzUxW74-4" edge="1">
          <mxGeometry width="50" height="50" relative="1" as="geometry">
            <mxPoint x="150" y="130" as="sourcePoint" />
            <mxPoint x="150" y="170" as="targetPoint" />
          </mxGeometry>
        </mxCell>
        <mxCell id="JoetTdicjiF9OVzUxW74-30" value="" style="endArrow=classic;html=1;rounded=0;exitX=0.5;exitY=1;exitDx=0;exitDy=0;entryX=0.5;entryY=0;entryDx=0;entryDy=0;exitPerimeter=0;fontFamily=Times New Roman;labelBackgroundColor=none;fontStyle=0;fontSize=13;fontColor=#000000;" parent="1" source="JoetTdicjiF9OVzUxW74-4" target="JoetTdicjiF9OVzUxW74-5" edge="1">
          <mxGeometry width="50" height="50" relative="1" as="geometry">
            <mxPoint x="150" y="250" as="sourcePoint" />
            <mxPoint x="150" y="290" as="targetPoint" />
          </mxGeometry>
        </mxCell>
        <mxCell id="JoetTdicjiF9OVzUxW74-31" value="" style="endArrow=classic;html=1;rounded=0;exitX=0.5;exitY=1;exitDx=0;exitDy=0;entryX=0.5;entryY=0;entryDx=0;entryDy=0;fontFamily=Times New Roman;labelBackgroundColor=none;fontStyle=0;fontSize=13;fontColor=#000000;" parent="1" source="JoetTdicjiF9OVzUxW74-5" target="JoetTdicjiF9OVzUxW74-6" edge="1">
          <mxGeometry width="50" height="50" relative="1" as="geometry">
            <mxPoint x="150" y="410" as="sourcePoint" />
            <mxPoint x="150" y="450" as="targetPoint" />
          </mxGeometry>
        </mxCell>
        <mxCell id="JoetTdicjiF9OVzUxW74-32" value="" style="endArrow=classic;html=1;rounded=0;exitX=0.5;exitY=1;exitDx=0;exitDy=0;entryX=0.5;entryY=0;entryDx=0;entryDy=0;fontFamily=Times New Roman;labelBackgroundColor=none;fontStyle=0;fontSize=13;fontColor=#000000;" parent="1" source="JoetTdicjiF9OVzUxW74-6" target="JoetTdicjiF9OVzUxW74-7" edge="1">
          <mxGeometry width="50" height="50" relative="1" as="geometry">
            <mxPoint x="150" y="570" as="sourcePoint" />
            <mxPoint x="150" y="610" as="targetPoint" />
          </mxGeometry>
        </mxCell>
        <mxCell id="JoetTdicjiF9OVzUxW74-33" value="" style="endArrow=classic;html=1;rounded=0;exitX=0.5;exitY=1;exitDx=0;exitDy=0;entryX=0.5;entryY=0;entryDx=0;entryDy=0;entryPerimeter=0;fontFamily=Times New Roman;labelBackgroundColor=none;fontStyle=0;fontSize=13;fontColor=#000000;" parent="1" source="JoetTdicjiF9OVzUxW74-7" target="JoetTdicjiF9OVzUxW74-11" edge="1">
          <mxGeometry width="50" height="50" relative="1" as="geometry">
            <mxPoint x="150" y="690" as="sourcePoint" />
            <mxPoint x="150" y="730" as="targetPoint" />
          </mxGeometry>
        </mxCell>
        <mxCell id="JoetTdicjiF9OVzUxW74-34" value="" style="endArrow=classic;html=1;rounded=0;exitX=0.5;exitY=0;exitDx=0;exitDy=0;entryX=0;entryY=0.5;entryDx=0;entryDy=0;exitPerimeter=0;fontFamily=Times New Roman;labelBackgroundColor=none;fontStyle=0;fontSize=13;fontColor=#000000;" parent="1" source="JoetTdicjiF9OVzUxW74-13" target="JoetTdicjiF9OVzUxW74-6" edge="1">
          <mxGeometry width="50" height="50" relative="1" as="geometry">
            <mxPoint x="150" y="850" as="sourcePoint" />
            <mxPoint x="150" y="890" as="targetPoint" />
            <Array as="points">
              <mxPoint x="40" y="640" />
            </Array>
          </mxGeometry>
        </mxCell>
        <mxCell id="JoetTdicjiF9OVzUxW74-35" value="" style="endArrow=classic;html=1;rounded=0;exitX=1;exitY=0.5;exitDx=0;exitDy=0;entryX=0.5;entryY=0;entryDx=0;entryDy=0;entryPerimeter=0;fontFamily=Times New Roman;labelBackgroundColor=none;fontStyle=0;fontSize=13;fontColor=#000000;" parent="1" source="JoetTdicjiF9OVzUxW74-6" target="JoetTdicjiF9OVzUxW74-12" edge="1">
          <mxGeometry width="50" height="50" relative="1" as="geometry">
            <mxPoint x="30" y="890" as="sourcePoint" />
            <mxPoint x="90" y="650" as="targetPoint" />
            <Array as="points">
              <mxPoint x="240" y="640" />
            </Array>
          </mxGeometry>
        </mxCell>
        <mxCell id="JoetTdicjiF9OVzUxW74-36" value="" style="endArrow=classic;html=1;rounded=0;exitX=1;exitY=0.5;exitDx=0;exitDy=0;entryX=0.5;entryY=0;entryDx=0;entryDy=0;entryPerimeter=0;exitPerimeter=0;fontFamily=Times New Roman;labelBackgroundColor=none;fontStyle=0;fontSize=13;fontColor=#000000;" parent="1" source="JoetTdicjiF9OVzUxW74-4" target="JoetTdicjiF9OVzUxW74-14" edge="1">
          <mxGeometry width="50" height="50" relative="1" as="geometry">
            <mxPoint x="254" y="340" as="sourcePoint" />
            <mxPoint x="294" y="580" as="targetPoint" />
            <Array as="points">
              <mxPoint x="320" y="340" />
            </Array>
          </mxGeometry>
        </mxCell>
        <mxCell id="JoetTdicjiF9OVzUxW74-37" value="" style="endArrow=classic;html=1;rounded=0;exitX=0.5;exitY=1;exitDx=0;exitDy=0;exitPerimeter=0;entryX=0.5;entryY=0;entryDx=0;entryDy=0;fontFamily=Times New Roman;labelBackgroundColor=none;fontStyle=0;fontSize=13;fontColor=#000000;" parent="1" source="JoetTdicjiF9OVzUxW74-10" target="JoetTdicjiF9OVzUxW74-8" edge="1">
          <mxGeometry width="50" height="50" relative="1" as="geometry">
            <mxPoint x="-100" y="1270" as="sourcePoint" />
            <mxPoint x="-50" y="1220" as="targetPoint" />
          </mxGeometry>
        </mxCell>
        <mxCell id="JoetTdicjiF9OVzUxW74-38" value="" style="endArrow=classic;html=1;rounded=0;exitX=0.5;exitY=1;exitDx=0;exitDy=0;entryX=0.5;entryY=0;entryDx=0;entryDy=0;fontFamily=Times New Roman;labelBackgroundColor=none;fontStyle=0;fontSize=13;fontColor=#000000;" parent="1" source="JoetTdicjiF9OVzUxW74-8" target="JoetTdicjiF9OVzUxW74-9" edge="1">
          <mxGeometry width="50" height="50" relative="1" as="geometry">
            <mxPoint x="230" y="1010" as="sourcePoint" />
            <mxPoint x="230" y="1050" as="targetPoint" />
          </mxGeometry>
        </mxCell>
        <mxCell id="JoetTdicjiF9OVzUxW74-39" value="" style="endArrow=classic;html=1;rounded=0;exitX=0.5;exitY=1;exitDx=0;exitDy=0;entryX=0.5;entryY=0;entryDx=0;entryDy=0;fontFamily=Times New Roman;labelBackgroundColor=none;fontStyle=0;fontSize=13;fontColor=#000000;" parent="1" source="JoetTdicjiF9OVzUxW74-9" target="JoetTdicjiF9OVzUxW74-19" edge="1">
          <mxGeometry width="50" height="50" relative="1" as="geometry">
            <mxPoint x="230" y="1130" as="sourcePoint" />
            <mxPoint x="230" y="1170" as="targetPoint" />
          </mxGeometry>
        </mxCell>
        <mxCell id="JoetTdicjiF9OVzUxW74-40" value="" style="endArrow=classic;html=1;rounded=0;exitX=0.5;exitY=1;exitDx=0;exitDy=0;entryX=0.5;entryY=0;entryDx=0;entryDy=0;entryPerimeter=0;fontFamily=Times New Roman;labelBackgroundColor=none;fontStyle=0;fontSize=13;fontColor=#000000;" parent="1" source="JoetTdicjiF9OVzUxW74-19" target="JoetTdicjiF9OVzUxW74-20" edge="1">
          <mxGeometry width="50" height="50" relative="1" as="geometry">
            <mxPoint x="230" y="1290" as="sourcePoint" />
            <mxPoint x="230" y="1330" as="targetPoint" />
          </mxGeometry>
        </mxCell>
        <mxCell id="JoetTdicjiF9OVzUxW74-41" value="" style="endArrow=classic;html=1;rounded=0;entryX=0.5;entryY=0;entryDx=0;entryDy=0;exitX=0.5;exitY=1;exitDx=0;exitDy=0;exitPerimeter=0;fontFamily=Times New Roman;labelBackgroundColor=none;fontStyle=0;fontSize=13;fontColor=#000000;" parent="1" source="JoetTdicjiF9OVzUxW74-20" target="JoetTdicjiF9OVzUxW74-21" edge="1">
          <mxGeometry width="50" height="50" relative="1" as="geometry">
            <mxPoint x="220" y="1574" as="sourcePoint" />
            <mxPoint x="230" y="1450" as="targetPoint" />
          </mxGeometry>
        </mxCell>
        <mxCell id="JoetTdicjiF9OVzUxW74-42" value="" style="endArrow=classic;html=1;rounded=0;entryX=0.5;entryY=0;entryDx=0;entryDy=0;exitX=0.5;exitY=1;exitDx=0;exitDy=0;exitPerimeter=0;fontFamily=Times New Roman;labelBackgroundColor=none;fontStyle=0;fontSize=13;fontColor=#000000;" parent="1" source="JoetTdicjiF9OVzUxW74-22" target="JoetTdicjiF9OVzUxW74-23" edge="1">
          <mxGeometry width="50" height="50" relative="1" as="geometry">
            <mxPoint x="-290" y="2450" as="sourcePoint" />
            <mxPoint x="-290" y="2490" as="targetPoint" />
          </mxGeometry>
        </mxCell>
        <mxCell id="JoetTdicjiF9OVzUxW74-43" value="" style="endArrow=classic;html=1;rounded=0;entryX=0.5;entryY=0;entryDx=0;entryDy=0;exitX=0.5;exitY=1;exitDx=0;exitDy=0;exitPerimeter=0;entryPerimeter=0;fontFamily=Times New Roman;labelBackgroundColor=none;fontStyle=0;fontSize=13;fontColor=#000000;" parent="1" source="JoetTdicjiF9OVzUxW74-24" target="JoetTdicjiF9OVzUxW74-22" edge="1">
          <mxGeometry width="50" height="50" relative="1" as="geometry">
            <mxPoint x="230" y="2050" as="sourcePoint" />
            <mxPoint x="230" y="2090" as="targetPoint" />
          </mxGeometry>
        </mxCell>
        <mxCell id="JoetTdicjiF9OVzUxW74-44" value="" style="endArrow=classic;html=1;rounded=0;entryX=0.5;entryY=1;entryDx=0;entryDy=0;exitX=0.5;exitY=1;exitDx=0;exitDy=0;entryPerimeter=0;fontFamily=Times New Roman;labelBackgroundColor=none;fontStyle=0;fontSize=13;fontColor=#000000;" parent="1" source="JoetTdicjiF9OVzUxW74-23" target="JoetTdicjiF9OVzUxW74-26" edge="1">
          <mxGeometry width="50" height="50" relative="1" as="geometry">
            <mxPoint x="230" y="1890" as="sourcePoint" />
            <mxPoint x="230" y="1930" as="targetPoint" />
            <Array as="points">
              <mxPoint x="220" y="2240" />
              <mxPoint x="120" y="2240" />
            </Array>
          </mxGeometry>
        </mxCell>
        <mxCell id="JoetTdicjiF9OVzUxW74-45" value="" style="endArrow=classic;html=1;rounded=0;entryX=0.5;entryY=1;entryDx=0;entryDy=0;exitX=1;exitY=0.5;exitDx=0;exitDy=0;exitPerimeter=0;entryPerimeter=0;fontFamily=Times New Roman;labelBackgroundColor=none;fontStyle=0;fontSize=13;fontColor=#000000;" parent="1" source="JoetTdicjiF9OVzUxW74-22" target="JoetTdicjiF9OVzUxW74-26" edge="1">
          <mxGeometry width="50" height="50" relative="1" as="geometry">
            <mxPoint x="230" y="2050" as="sourcePoint" />
            <mxPoint x="230" y="2090" as="targetPoint" />
            <Array as="points">
              <mxPoint x="320" y="1980" />
              <mxPoint x="320" y="2240" />
              <mxPoint x="120" y="2240" />
            </Array>
          </mxGeometry>
        </mxCell>
        <mxCell id="JoetTdicjiF9OVzUxW74-46" value="5" style="verticalLabelPosition=middle;verticalAlign=middle;html=1;shape=mxgraph.flowchart.on-page_reference;strokeWidth=2;fontFamily=Times New Roman;labelBackgroundColor=none;fontStyle=0;fontSize=13;fontColor=#000000;labelPosition=center;align=center;" parent="1" vertex="1">
          <mxGeometry x="200" y="1760" width="40" height="40" as="geometry" />
        </mxCell>
        <mxCell id="JoetTdicjiF9OVzUxW74-47" value="" style="endArrow=classic;html=1;rounded=0;entryX=0.5;entryY=0;entryDx=0;entryDy=0;exitX=0.5;exitY=1;exitDx=0;exitDy=0;entryPerimeter=0;fontFamily=Times New Roman;labelBackgroundColor=none;fontStyle=0;fontSize=13;fontColor=#000000;" parent="1" source="JoetTdicjiF9OVzUxW74-21" target="JoetTdicjiF9OVzUxW74-46" edge="1">
          <mxGeometry width="50" height="50" relative="1" as="geometry">
            <mxPoint x="230" y="1570" as="sourcePoint" />
            <mxPoint x="230" y="1610" as="targetPoint" />
          </mxGeometry>
        </mxCell>
        <mxCell id="JoetTdicjiF9OVzUxW74-48" value="6" style="verticalLabelPosition=middle;verticalAlign=middle;html=1;shape=mxgraph.flowchart.on-page_reference;strokeWidth=2;fontFamily=Times New Roman;labelBackgroundColor=none;fontStyle=0;fontSize=13;fontColor=#000000;labelPosition=center;align=center;" parent="1" vertex="1">
          <mxGeometry x="100" y="1760" width="40" height="40" as="geometry" />
        </mxCell>
        <mxCell id="JoetTdicjiF9OVzUxW74-49" value="" style="endArrow=classic;html=1;rounded=0;exitX=0.5;exitY=0;exitDx=0;exitDy=0;exitPerimeter=0;entryX=0;entryY=0.5;entryDx=0;entryDy=0;fontFamily=Times New Roman;labelBackgroundColor=none;fontStyle=0;fontSize=13;fontColor=#000000;" parent="1" source="JoetTdicjiF9OVzUxW74-48" target="JoetTdicjiF9OVzUxW74-8" edge="1">
          <mxGeometry width="50" height="50" relative="1" as="geometry">
            <mxPoint x="230" y="1730" as="sourcePoint" />
            <mxPoint x="110" y="1160" as="targetPoint" />
            <Array as="points">
              <mxPoint x="120" y="1080" />
            </Array>
          </mxGeometry>
        </mxCell>
        <mxCell id="JoetTdicjiF9OVzUxW74-50" value="" style="endArrow=classic;html=1;rounded=0;entryX=0.5;entryY=0;entryDx=0;entryDy=0;exitX=1;exitY=0.5;exitDx=0;exitDy=0;exitPerimeter=0;entryPerimeter=0;fontFamily=Times New Roman;labelBackgroundColor=none;fontStyle=0;fontSize=13;fontColor=#000000;" parent="1" source="JoetTdicjiF9OVzUxW74-20" target="JoetTdicjiF9OVzUxW74-46" edge="1">
          <mxGeometry width="50" height="50" relative="1" as="geometry">
            <mxPoint x="230" y="1570" as="sourcePoint" />
            <mxPoint x="230" y="1610" as="targetPoint" />
            <Array as="points">
              <mxPoint x="320" y="1500" />
              <mxPoint x="320" y="1740" />
              <mxPoint x="220" y="1740" />
            </Array>
          </mxGeometry>
        </mxCell>
        <mxCell id="JoetTdicjiF9OVzUxW74-51" value="7" style="verticalLabelPosition=middle;verticalAlign=middle;html=1;shape=mxgraph.flowchart.on-page_reference;strokeWidth=2;fontFamily=Times New Roman;labelBackgroundColor=none;fontStyle=0;fontSize=13;fontColor=#000000;labelPosition=center;align=center;" parent="1" vertex="1">
          <mxGeometry x="340" y="1760" width="40" height="40" as="geometry" />
        </mxCell>
        <mxCell id="JoetTdicjiF9OVzUxW74-52" value="" style="endArrow=classic;html=1;rounded=0;exitX=1;exitY=0.5;exitDx=0;exitDy=0;entryX=0.5;entryY=0;entryDx=0;entryDy=0;entryPerimeter=0;fontFamily=Times New Roman;labelBackgroundColor=none;fontStyle=0;fontSize=13;fontColor=#000000;" parent="1" source="JoetTdicjiF9OVzUxW74-8" target="JoetTdicjiF9OVzUxW74-51" edge="1">
          <mxGeometry width="50" height="50" relative="1" as="geometry">
            <mxPoint x="230" y="1130" as="sourcePoint" />
            <mxPoint x="230" y="1170" as="targetPoint" />
            <Array as="points">
              <mxPoint x="360" y="1080" />
            </Array>
          </mxGeometry>
        </mxCell>
        <mxCell id="JoetTdicjiF9OVzUxW74-53" value="8" style="verticalLabelPosition=middle;verticalAlign=middle;html=1;shape=mxgraph.flowchart.on-page_reference;strokeWidth=2;fontFamily=Times New Roman;labelBackgroundColor=none;fontStyle=0;fontSize=13;fontColor=#000000;labelPosition=center;align=center;" parent="1" vertex="1">
          <mxGeometry x="40" y="1840" width="40" height="40" as="geometry" />
        </mxCell>
        <mxCell id="JoetTdicjiF9OVzUxW74-55" value="8" style="verticalLabelPosition=middle;verticalAlign=middle;html=1;shape=mxgraph.flowchart.on-page_reference;strokeWidth=2;fontFamily=Times New Roman;labelBackgroundColor=none;fontStyle=0;fontSize=13;fontColor=#000000;labelPosition=center;align=center;" parent="1" vertex="1">
          <mxGeometry x="40" y="1760" width="40" height="40" as="geometry" />
        </mxCell>
        <mxCell id="JoetTdicjiF9OVzUxW74-56" value="" style="endArrow=classic;html=1;rounded=0;exitX=0.5;exitY=0;exitDx=0;exitDy=0;exitPerimeter=0;entryX=0.5;entryY=1;entryDx=0;entryDy=0;entryPerimeter=0;fontFamily=Times New Roman;labelBackgroundColor=none;fontStyle=0;fontSize=13;fontColor=#000000;" parent="1" source="JoetTdicjiF9OVzUxW74-55" target="JoetTdicjiF9OVzUxW74-16" edge="1">
          <mxGeometry width="50" height="50" relative="1" as="geometry">
            <mxPoint x="230" y="1570" as="sourcePoint" />
            <mxPoint x="70" y="1550" as="targetPoint" />
          </mxGeometry>
        </mxCell>
        <mxCell id="JoetTdicjiF9OVzUxW74-59" value="9" style="verticalLabelPosition=middle;verticalAlign=middle;html=1;shape=mxgraph.flowchart.on-page_reference;strokeWidth=2;fontFamily=Times New Roman;labelBackgroundColor=none;fontStyle=0;fontSize=13;fontColor=#000000;labelPosition=center;align=center;" parent="1" vertex="1">
          <mxGeometry x="400" y="1760" width="40" height="40" as="geometry" />
        </mxCell>
        <mxCell id="JoetTdicjiF9OVzUxW74-60" value="10" style="verticalLabelPosition=middle;verticalAlign=middle;html=1;shape=mxgraph.flowchart.on-page_reference;strokeWidth=2;fontFamily=Times New Roman;labelBackgroundColor=none;fontStyle=0;fontSize=13;fontColor=#000000;labelPosition=center;align=center;" parent="1" vertex="1">
          <mxGeometry x="460" y="1760" width="40" height="40" as="geometry" />
        </mxCell>
        <mxCell id="JoetTdicjiF9OVzUxW74-61" value="10" style="verticalLabelPosition=middle;verticalAlign=middle;html=1;shape=mxgraph.flowchart.on-page_reference;strokeWidth=2;fontFamily=Times New Roman;labelBackgroundColor=none;fontStyle=0;fontSize=13;fontColor=#000000;labelPosition=center;align=center;" parent="1" vertex="1">
          <mxGeometry x="460" y="1840" width="40" height="40" as="geometry" />
        </mxCell>
        <mxCell id="JoetTdicjiF9OVzUxW74-62" value="" style="endArrow=classic;html=1;rounded=0;exitX=0.5;exitY=1;exitDx=0;exitDy=0;entryX=0.5;entryY=0;entryDx=0;entryDy=0;exitPerimeter=0;entryPerimeter=0;fontFamily=Times New Roman;labelBackgroundColor=none;fontStyle=0;fontSize=13;fontColor=#000000;" parent="1" source="JoetTdicjiF9OVzUxW74-15" target="JoetTdicjiF9OVzUxW74-59" edge="1">
          <mxGeometry width="50" height="50" relative="1" as="geometry">
            <mxPoint x="230" y="1290" as="sourcePoint" />
            <mxPoint x="230" y="1330" as="targetPoint" />
          </mxGeometry>
        </mxCell>
        <mxCell id="JoetTdicjiF9OVzUxW74-63" value="" style="endArrow=classic;html=1;rounded=0;exitX=0.5;exitY=1;exitDx=0;exitDy=0;entryX=0.5;entryY=0;entryDx=0;entryDy=0;exitPerimeter=0;entryPerimeter=0;fontFamily=Times New Roman;labelBackgroundColor=none;fontStyle=0;fontSize=13;fontColor=#000000;" parent="1" source="JoetTdicjiF9OVzUxW74-17" target="JoetTdicjiF9OVzUxW74-60" edge="1">
          <mxGeometry width="50" height="50" relative="1" as="geometry">
            <mxPoint x="410" y="1010" as="sourcePoint" />
            <mxPoint x="430" y="1770" as="targetPoint" />
          </mxGeometry>
        </mxCell>
        <mxCell id="JoetTdicjiF9OVzUxW74-64" value="output: max" style="shape=parallelogram;html=1;strokeWidth=2;perimeter=parallelogramPerimeter;whiteSpace=wrap;rounded=1;arcSize=12;size=0.23;fontFamily=Times New Roman;labelBackgroundColor=none;fontStyle=0;fontSize=13;fontColor=#000000;" parent="1" vertex="1">
          <mxGeometry x="160" y="2320" width="120" height="80" as="geometry" />
        </mxCell>
        <mxCell id="JoetTdicjiF9OVzUxW74-65" value="" style="endArrow=classic;html=1;rounded=0;entryX=0.5;entryY=0;entryDx=0;entryDy=0;exitX=0.5;exitY=1;exitDx=0;exitDy=0;exitPerimeter=0;fontFamily=Times New Roman;labelBackgroundColor=none;fontStyle=0;fontSize=13;fontColor=#000000;" parent="1" source="JoetTdicjiF9OVzUxW74-25" target="JoetTdicjiF9OVzUxW74-64" edge="1">
          <mxGeometry width="50" height="50" relative="1" as="geometry">
            <mxPoint x="230" y="1890" as="sourcePoint" />
            <mxPoint x="230" y="1930" as="targetPoint" />
            <Array as="points">
              <mxPoint x="360" y="2280" />
              <mxPoint x="220" y="2280" />
            </Array>
          </mxGeometry>
        </mxCell>
        <mxCell id="JoetTdicjiF9OVzUxW74-66" value="" style="endArrow=classic;html=1;rounded=0;exitX=0.5;exitY=1;exitDx=0;exitDy=0;entryX=0.5;entryY=1;entryDx=0;entryDy=0;entryPerimeter=0;fontFamily=Times New Roman;labelBackgroundColor=none;fontStyle=0;fontSize=13;fontColor=#000000;" parent="1" source="JoetTdicjiF9OVzUxW74-64" target="JoetTdicjiF9OVzUxW74-53" edge="1">
          <mxGeometry width="50" height="50" relative="1" as="geometry">
            <mxPoint x="230" y="2050" as="sourcePoint" />
            <mxPoint x="70" y="2040" as="targetPoint" />
            <Array as="points">
              <mxPoint x="220" y="2440" />
              <mxPoint x="60" y="2440" />
            </Array>
          </mxGeometry>
        </mxCell>
        <mxCell id="JoetTdicjiF9OVzUxW74-67" value="" style="endArrow=classic;html=1;rounded=0;entryX=0.5;entryY=0;entryDx=0;entryDy=0;exitX=0.5;exitY=1;exitDx=0;exitDy=0;exitPerimeter=0;fontFamily=Times New Roman;labelBackgroundColor=none;fontStyle=0;fontSize=13;fontColor=#000000;" parent="1" source="JoetTdicjiF9OVzUxW74-27" target="JoetTdicjiF9OVzUxW74-68" edge="1">
          <mxGeometry width="50" height="50" relative="1" as="geometry">
            <mxPoint x="230" y="2050" as="sourcePoint" />
            <mxPoint x="230" y="2090" as="targetPoint" />
            <Array as="points">
              <mxPoint x="420" y="2480" />
              <mxPoint x="220" y="2480" />
            </Array>
          </mxGeometry>
        </mxCell>
        <mxCell id="JoetTdicjiF9OVzUxW74-68" value="output: sum,&lt;div style=&quot;font-size: 13px;&quot;&gt;min&lt;/div&gt;" style="shape=parallelogram;html=1;strokeWidth=2;perimeter=parallelogramPerimeter;whiteSpace=wrap;rounded=1;arcSize=12;size=0.23;fontFamily=Times New Roman;labelBackgroundColor=none;fontStyle=0;fontSize=13;fontColor=#000000;" parent="1" vertex="1">
          <mxGeometry x="160" y="2520" width="120" height="80" as="geometry" />
        </mxCell>
        <mxCell id="JoetTdicjiF9OVzUxW74-69" value="" style="endArrow=classic;html=1;rounded=0;exitX=0.5;exitY=1;exitDx=0;exitDy=0;entryX=0.5;entryY=0;entryDx=0;entryDy=0;entryPerimeter=0;fontFamily=Times New Roman;labelBackgroundColor=none;fontStyle=0;fontSize=13;fontColor=#000000;" parent="1" source="JoetTdicjiF9OVzUxW74-68" target="JoetTdicjiF9OVzUxW74-70" edge="1">
          <mxGeometry width="50" height="50" relative="1" as="geometry">
            <mxPoint x="230" y="2050" as="sourcePoint" />
            <mxPoint x="220" y="2641.0526315789475" as="targetPoint" />
          </mxGeometry>
        </mxCell>
        <mxCell id="JoetTdicjiF9OVzUxW74-70" value="end" style="strokeWidth=2;html=1;shape=mxgraph.flowchart.start_1;whiteSpace=wrap;fontFamily=Times New Roman;labelBackgroundColor=none;fontStyle=0;fontSize=13;fontColor=#000000;" parent="1" vertex="1">
          <mxGeometry x="160" y="2640" width="120" height="80" as="geometry" />
        </mxCell>
        <mxCell id="JoetTdicjiF9OVzUxW74-71" value="&lt;span lang=&quot;EN-US&quot; style=&quot;font-size: 13px; line-height: 150%;&quot;&gt;output:&amp;nbsp;&lt;/span&gt;&lt;div&gt;&lt;span lang=&quot;EN-US&quot; style=&quot;font-size: 13px; line-height: 150%;&quot;&gt;n or m &amp;gt; 15&lt;/span&gt;&lt;/div&gt;" style="shape=parallelogram;html=1;strokeWidth=2;perimeter=parallelogramPerimeter;whiteSpace=wrap;rounded=1;arcSize=12;size=0.23;fontFamily=Times New Roman;labelBackgroundColor=none;fontStyle=0;fontSize=13;fontColor=#000000;" parent="1" vertex="1">
          <mxGeometry x="420" y="2520" width="120" height="80" as="geometry" />
        </mxCell>
        <mxCell id="JoetTdicjiF9OVzUxW74-72" value="" style="endArrow=classic;html=1;rounded=0;entryX=0.5;entryY=0;entryDx=0;entryDy=0;exitX=0.5;exitY=1;exitDx=0;exitDy=0;exitPerimeter=0;fontFamily=Times New Roman;labelBackgroundColor=none;fontStyle=0;fontSize=13;fontColor=#000000;" parent="1" source="JoetTdicjiF9OVzUxW74-61" target="JoetTdicjiF9OVzUxW74-71" edge="1">
          <mxGeometry width="50" height="50" relative="1" as="geometry">
            <mxPoint x="230" y="2050" as="sourcePoint" />
            <mxPoint x="230" y="2090" as="targetPoint" />
          </mxGeometry>
        </mxCell>
        <mxCell id="JoetTdicjiF9OVzUxW74-73" value="" style="endArrow=classic;html=1;rounded=0;exitX=0.5;exitY=1;exitDx=0;exitDy=0;entryX=0.5;entryY=0;entryDx=0;entryDy=0;entryPerimeter=0;fontFamily=Times New Roman;labelBackgroundColor=none;fontStyle=0;fontSize=13;fontColor=#000000;" parent="1" source="JoetTdicjiF9OVzUxW74-71" target="JoetTdicjiF9OVzUxW74-70" edge="1">
          <mxGeometry width="50" height="50" relative="1" as="geometry">
            <mxPoint x="230" y="2610" as="sourcePoint" />
            <mxPoint x="230" y="2650" as="targetPoint" />
            <Array as="points">
              <mxPoint x="480" y="2620" />
              <mxPoint x="220" y="2620" />
            </Array>
          </mxGeometry>
        </mxCell>
        <mxCell id="JoetTdicjiF9OVzUxW74-74" value="&lt;span lang=&quot;EN-US&quot; style=&quot;font-size: 13px; line-height: 150%;&quot;&gt;i &lt;/span&gt;&lt;span lang=&quot;EN-US&quot; style=&quot;font-size: 13px; line-height: 150%;&quot;&gt;= &lt;/span&gt;&lt;span lang=&quot;EN-US&quot; style=&quot;font-size: 13px; line-height: 150%;&quot;&gt;0&lt;/span&gt;&lt;span lang=&quot;EN-US&quot; style=&quot;font-size: 13px; line-height: 150%;&quot;&gt;; &lt;/span&gt;&lt;span lang=&quot;EN-US&quot; style=&quot;font-size: 13px; line-height: 150%;&quot;&gt;i &lt;/span&gt;&lt;span lang=&quot;EN-US&quot; style=&quot;font-size: 13px; line-height: 150%;&quot;&gt;&amp;lt; &lt;/span&gt;&lt;span lang=&quot;EN-US&quot; style=&quot;font-size: 13px; line-height: 150%;&quot;&gt;n&lt;/span&gt;&lt;span lang=&quot;EN-US&quot; style=&quot;font-size: 13px; line-height: 150%;&quot;&gt;;&lt;/span&gt;&lt;div style=&quot;font-size: 13px;&quot;&gt;&lt;span lang=&quot;EN-US&quot; style=&quot;font-size: 13px; line-height: 150%;&quot;&gt;i&lt;/span&gt;&lt;span lang=&quot;EN-US&quot; style=&quot;font-size: 13px; line-height: 150%;&quot;&gt;++&lt;/span&gt;&lt;/div&gt;" style="text;html=1;align=center;verticalAlign=middle;whiteSpace=wrap;rounded=0;fontFamily=Times New Roman;labelBackgroundColor=none;fontStyle=0;fontSize=13;fontColor=#000000;" parent="1" vertex="1">
          <mxGeometry x="80" y="600" width="120" height="80" as="geometry" />
        </mxCell>
        <mxCell id="JoetTdicjiF9OVzUxW74-75" value="&lt;span lang=&quot;EN-US&quot; style=&quot;font-size: 13px; line-height: 150%;&quot;&gt;j &lt;/span&gt;&lt;span lang=&quot;EN-US&quot; style=&quot;font-size: 13px; line-height: 150%;&quot;&gt;= &lt;/span&gt;&lt;span lang=&quot;EN-US&quot; style=&quot;font-size: 13px; line-height: 150%;&quot;&gt;0&lt;/span&gt;&lt;span lang=&quot;EN-US&quot; style=&quot;font-size: 13px; line-height: 150%;&quot;&gt;; &lt;/span&gt;&lt;span lang=&quot;EN-US&quot; style=&quot;font-size: 13px; line-height: 150%;&quot;&gt;j &lt;/span&gt;&lt;span lang=&quot;EN-US&quot; style=&quot;font-size: 13px; line-height: 150%;&quot;&gt;&amp;lt; &lt;/span&gt;&lt;span lang=&quot;EN-US&quot; style=&quot;font-size: 13px; line-height: 150%;&quot;&gt;m&lt;/span&gt;&lt;span lang=&quot;EN-US&quot; style=&quot;font-size: 13px; line-height: 150%;&quot;&gt;;&lt;/span&gt;&lt;div style=&quot;font-size: 13px;&quot;&gt;&lt;span lang=&quot;EN-US&quot; style=&quot;font-size: 13px; line-height: 150%;&quot;&gt;j&lt;/span&gt;&lt;span lang=&quot;EN-US&quot; style=&quot;font-size: 13px; line-height: 150%;&quot;&gt;++&lt;/span&gt;&lt;/div&gt;" style="text;html=1;align=center;verticalAlign=middle;whiteSpace=wrap;rounded=0;fontFamily=Times New Roman;labelBackgroundColor=none;fontStyle=0;fontSize=13;fontColor=#000000;" parent="1" vertex="1">
          <mxGeometry x="160" y="1040" width="120" height="80" as="geometry" />
        </mxCell>
      </root>
    </mxGraphModel>
  </diagram>
</mxfile>
